<svg viewBox="0 0 32 32" xmlns="http://www.w3.org/2000/svg" aria-hidden="true" role="presentation" focusable="false" style="display: block; height: 24px; width: 24px; fill: currentcolor;">
  <path d="M26 1a5 5 0 0 1 4.995 4.783L31 6v10.68a5 5 0 0 1-4.783 4.995l-.217.004a5 5 0 0 1-4.783 4.996l-.217.004-3.782-.001-3.718 4.364-3.72-4.364-3.78.001a5 5 0 0 1-4.981-4.562l-.014-.22L1 21.678V11a5 5 0 0 1 4.783-4.995L6 6a5 5 0 0 1 4.783-4.995L11 1h15zm-5 7H6a3 3 0 0 0-2.995 2.824L3 11v10.68a3 3 0 0 0 2.824 2.994L6 24.68h4.705l2.794 3.278 2.795-3.278H21a3 3 0 0 0 2.995-2.823L24 21.68V11a3 3 0 0 0-3-3zm-1 10v2H6v-2h14zm6-15H11a3 3 0 0 0-2.995 2.824L8 6h13a5 5 0 0 1 4.995 4.783L26 11v8.68a3 3 0 0 0 2.995-2.824l.005-.177V6a3 3 0 0 0-2.824-2.995L26 3zM15 13v2H6v-2h9z"></path>
</svg>