<svg viewBox="0 0 32 32" xmlns="http://www.w3.org/2000/svg" aria-hidden="true" role="presentation" focusable="false" style="display: block; height: 24px; width: 24px; fill: currentcolor;">
  <path d="m26 5c1.0543618 0 1.9181651.81587779 1.9945143 1.85073766l.0054857.14926234.0013298 11.255617c1.8127343 1.2650459 2.9986702 3.3662194 2.9986702 5.744383 0 3.8659932-3.1340068 7-7 7-3.7854517 0-6.8690987-3.0047834-6.995941-6.7593502l-.004059-.2406498h-14c-1.0543618 0-1.91816512-.8158778-1.99451426-1.8507377l-.00548574-.1492623v-15c0-1.0543618.81587779-1.91816512 1.85073766-1.99451426l.14926234-.00548574zm-2 14c-2.7614237 0-5 2.2385763-5 5s2.2385763 5 5 5 5-2.2385763 5-5-2.2385763-5-5-5zm1 1v3.464l2.5547002 1.7039497-1.1094004 1.6641006-3.4452998-2.2968665v-4.5351838zm1-13h-23v15h14.2898925c.860564-2.8915115 3.5391038-5 6.7101075-5 .695354 0 1.3670274.1013887 2.0010432.2901893zm-11.5 3c2.4852814 0 4.5 2.0147186 4.5 4.5s-2.0147186 4.5-4.5 4.5-4.5-2.0147186-4.5-4.5 2.0147186-4.5 4.5-4.5zm0 2c-1.3807119 0-2.5 1.1192881-2.5 2.5s1.1192881 2.5 2.5 2.5 2.5-1.1192881 2.5-2.5-1.1192881-2.5-2.5-2.5zm-8.5-3c.55228475 0 1 .44771525 1 1 0 .5522847-.44771525 1-1 1s-1-.4477153-1-1c0-.55228475.44771525-1 1-1z"></path>
</svg>