<svg viewBox="0 0 32 32" xmlns="http://www.w3.org/2000/svg" aria-hidden="true" role="presentation" focusable="false" style="display: block; height: 24px; width: 24px; fill: currentcolor;">
  <path d="m16 1a15 15 0 1 0 15 15 15.017 15.017 0 0 0 -15-15zm-9.08307 24.28351a10.93393 10.93393 0 0 1 7.08307-4.59558v-2.122a4.9975 4.9975 0 1 1 4 .0022v2.12182a10.9291 10.9291 0 0 1 7.08307 4.59339 12.95749 12.95749 0 0 1 -18.16614.00018zm19.51251-1.55615a12.90782 12.90782 0 0 0 -5.87573-4.41095 7.00008 7.00008 0 1 0 -9.1084-.001 12.91422 12.91422 0 0 0 -5.87469 4.41223 12.9918 12.9918 0 1 1 23.42938-7.72764 12.91372 12.91372 0 0 1 -2.57056 7.72736z"></path>
</svg>