<svg viewBox="0 0 32 32" xmlns="http://www.w3.org/2000/svg" aria-hidden="true" role="presentation" focusable="false" style="display: block; height: 24px; width: 24px; fill: currentcolor;">
  <path d="M25 3a2 2 0 0 1 1.995 1.85L27 5v2h2a2 2 0 0 1 1.995 1.85L31 9v17a3 3 0 0 1-3 3H4a3 3 0 0 1-2.995-2.824L1 26V5a2 2 0 0 1 1.85-1.995L3 3zm4 6h-2v17a1 1 0 0 0 1.993.117L29 26zm-4-4H3v21a1 1 0 0 0 .883.993L4 27h21zM13 21v2H7v-2zm8 0v2h-6v-2zm-8-4v2H7v-2zm8 0v2h-6v-2zm0-8v6H7V9zm-2 2H9v2h10z"></path>
</svg>